<svg version="1.2" xmlns="http://www.w3.org/2000/svg" viewBox="0 0 800 800" width="800" height="800">
	<title>brain-svg</title>
	<style>
		.s0 { fill: #000000 } 
	</style>
	<path fill-rule="evenodd" class="s0" d="m797.2 468.4c-2.7 21.7-9.5 42.4-19.9 60.3-10.4 18-24.1 32.7-40.1 43.2-4.4 2.9-9 5.4-13.8 7.4 6.1 97.3-121.5 132.7-190.3 109.6l25.6 108.3-65.7 2.8-115-199.5c-38.8 13.2-84.5 19.6-114.1-37.9q-4-7.9-7.3-16.4c-7.5 1.9-15.2 2.8-22.8 2.8-21.9 0-58.4-7.9-77-23.5-14.7-11.8-26.3-28.4-33.6-47.9-39.5 6.6-73-4.6-94.9-32.4-27.8-34.6-35.7-91.8-21.2-153.1 19.1-81.9 77-174.1 192.2-208.7 10-15 22-28 35.4-38.4 72.4-56.1 189.8-61 278.9-7.7 34.6-7.8 70.3-3.6 103 12 64.1 29.1 110.6 90 119.4 151.8 17.3 10.9 31.6 28 40.7 48.9 19.2 43.7 21.9 87.5 9 122.9 12.2 29.5 16.2 63 11.5 95.5zm-47.4-46q0 0.1 0 0.1 0 0 0.1-0.1zm-33.1 10c-11.5 0-22.9-3.4-33.1-10l5.4-42.9c22.4 2.7 40.8-5.8 50.3-23.3 10.8-19.3 9.1-48.1-4.5-79-15.2-34.6-48-40.1-66.1-40.3h-1.2c-45.6 0-92 31.4-110.7 72.4l-27.3-15.9c5.3-21.1 14.4-40.5 26.7-56.9-10.6-10.8-18.5-24.9-23.1-40.7-4.6-15.8-5.6-32.7-2.9-49.2l26.9-3c1.3 13.3 5.8 25.8 13 35.9 7.3 10.1 16.9 17.3 27.5 20.7 22.5-12.2 46.9-18.2 71.5-17.7 3.5 0 6.9 0.4 10.3 0.7-17.5-37.5-45.1-66.5-78.3-82.1-80.8-38-135.4 21-147.9 41.4-30 48.8-10.8 95 3.9 125l-24.1 26.5c-21-22-35-52.1-39.8-85.2-30.9 11.3-72.4 8.9-95.6-39.2l21.9-18.2c24.6 22.3 63.7 20.4 82.2-7.2 4.4-12.1 10-23.6 16.6-34.2 10.6-16.9 23.3-31.6 37.7-43.5-60.5-20-146-16.8-197.7 23.4-13.9 9.8-25.4 24.1-33.2 41.2-7.8 17.2-11.6 36.6-11 56.1 0 31.6 20.4 81.5 48 89.3l-16 37.6c-17.6-4.9-33.5-16.1-45.8-32.1l-23.7 36.6-23.7-13.9 23.2-73.7c-3.8-14.3-5.8-29.2-5.8-44.2 0.1-11.9 1.1-23.7 3.1-35.4-73 36.5-109.1 97.3-122.3 152.9-10.2 42.7-6.2 81.3 10.4 102 13.2 16.5 33.5 20.4 52.5 18.9l51.1-48.3 16.8 17.2-15.2 60.4c8 30.7 34 46.5 81.6 35.4 2.4-24.5 10.4-47.6 23-66.9 9.2-16.1 21.4-29.4 35.6-38.7l24.9-81.5 25-1.3-2.7 66.8c42-5.2 88.9 5.1 132.6-2.9l8.1 35.4c-64.1 36-129.7-22.6-189.2 54.6-21.4 27.8-13.2 52 0 76.3 19 34.8 54.8 13.9 91.4 0 55.4-20.5 95.6-35.4 171.4-27.9-18.1-41.6-16.3-92 7.9-147.4l35.7 17.1c-25 70-1.6 110.5 14.6 128.4 25.1 27.6 62.7 35.9 87.6 19.3 9.5-6.4 17.7-15.4 24-26.2 6.2-10.8 10.3-23.2 11.9-36.3 1.7-12 1.5-24.3-0.3-36.2-10.2 6.5-21.6 9.9-33.1 9.9z"/>
</svg>