<svg version="1.2" xmlns="http://www.w3.org/2000/svg" viewBox="0 0 800 800" width="800" height="800">
	<title>lightbulb-svg</title>
	<style>
		.s0 { fill: #000002 } 
	</style>
	<g>
		<path fill-rule="evenodd" class="s0" d="m622.9 371.3c0 48.1-15.8 93.5-45.5 131.3-5.1 6.4-10.6 12.8-16.4 19.6-17.3 20.4-36.9 43.5-43 65.3 0 0.2-1.2 4.6-1 20.3 0 1.8 0.1 3.7 0.2 5.5 0.5 10.5 1.3 26.2-10.3 38.4-8.6 9-21.5 13.4-39.4 13.4h-115c-16.6 0-28.9-4.3-37.7-13.3-12.9-13-12.6-30.4-12.5-43.1l0.1-2.2c0.1-15.7-1-20.3-1.1-20.7-6-21.9-22.7-41.4-40.5-62-5.9-6.9-12.1-14-17.8-21.3-29.8-37.8-45.5-83.1-45.5-131.2 0-117.3 95.4-212.8 212.7-212.8 117.3 0 212.7 95.5 212.7 212.8zm-42.8 0c0-93.7-76.2-169.9-169.9-169.9-93.6 0-169.8 76.2-169.8 169.9 0 38.3 12.5 74.5 36.3 104.7 5.1 6.5 10.7 13 16.6 19.8 19.1 22.3 40.8 47.4 49.3 78.7 1.2 4.4 2.8 12.6 2.6 32.4v2.4c-0.1 3.7-0.1 9.5 0.4 12.3 1.1 0.3 3.2 0.6 6.9 0.6h115c3.3 0 5.6-0.2 7.1-0.4 0-2-0.1-4.5-0.2-6.3-0.1-2.4-0.2-4.8-0.3-7.2-0.2-19.7 1.4-27.8 2.6-32.2 8.6-31 31.5-57.9 51.7-81.6 5.5-6.5 10.7-12.6 15.3-18.5 23.8-30.1 36.4-66.3 36.4-104.7z"/>
		<path fill-rule="evenodd" class="s0" d="m504.5 725.9v31.8c0 22.8-18.6 41.4-41.4 41.4h-105.8c-22.8 0-41.4-18.6-41.4-41.4v-31.8c0-22.8 18.6-41.4 41.4-41.4h105.8c22.8 0 41.4 18.6 41.4 41.4zm-145.8 1.4v28.9h103v-28.9z"/>
		<path class="s0" d="m410.2 130.8c11.8 0 21.4-9.6 21.4-21.4v-88c0-11.8-9.6-21.4-21.4-21.4-11.8 0-21.4 9.6-21.4 21.4v88c0 11.8 9.6 21.4 21.4 21.4z"/>
		<path class="s0" d="m692.1 98.9c-8.2-8.6-21.8-8.9-30.3-0.8l-65.1 62.1c-8.5 8.2-8.8 21.8-0.7 30.3 4.2 4.4 9.9 6.7 15.5 6.7 5.3 0 10.7-2 14.8-6l65.1-62.1c8.5-8.1 8.8-21.7 0.7-30.2z"/>
		<path class="s0" d="m755.9 313.1q0 0 0 0l-83.7 0.2c-11.9 0-21.4 9.6-21.4 21.4 0 11.9 9.6 21.4 21.4 21.4q0 0 0 0l83.8-0.1c11.8 0 21.4-9.6 21.4-21.5-0.1-11.8-9.7-21.4-21.5-21.4z"/>
		<path class="s0" d="m213.5 184.8c8.2-8.5 7.8-22.1-0.7-30.3l-65.1-62.1c-8.5-8.1-22.1-7.8-30.2 0.7-8.2 8.6-7.9 22.2 0.7 30.3l65 62.1c4.2 4 9.5 5.9 14.8 5.9 5.6 0 11.3-2.2 15.5-6.6z"/>
		<path class="s0" d="m128.8 313.3l-83.8-0.2q0 0 0 0c-11.8 0-21.4 9.6-21.4 21.4 0 11.9 9.5 21.5 21.4 21.5l83.7 0.1q0 0 0 0c11.9 0 21.4-9.5 21.5-21.4 0-11.8-9.6-21.4-21.4-21.4z"/>
	</g>
</svg>